<?xml version="1.0" encoding="utf-8"?>
<!-- Generator: Adobe Illustrator 24.0.3, SVG Export Plug-In . SVG Version: 6.00 Build 0)  -->
<svg version="1.1" id="Calque_1" xmlns="http://www.w3.org/2000/svg" xmlns:xlink="http://www.w3.org/1999/xlink" x="0px" y="0px"
	 viewBox="0 0 50 50" style="enable-background:new 0 0 50 50;" xml:space="preserve">
<style type="text/css">
	.st0{clip-path:url(#SVGID_2_);fill:#2C3435;}
	.st1{clip-path:url(#SVGID_2_);fill:#FFFFFF;}
	.st2{clip-path:url(#SVGID_2_);fill:#AEC9BA;}
</style>
<g>
	<defs>
		<rect id="SVGID_1_" width="50" height="50"/>
	</defs>
	<clipPath id="SVGID_2_">
		<use xlink:href="#SVGID_1_"  style="overflow:visible;"/>
	</clipPath>
	<path class="st0" d="M25,50c13.81,0,25-11.19,25-25S38.81,0,25,0S0,11.19,0,25S11.19,50,25,50"/>
	<path class="st1" d="M38.54,20.73c0.12-1.6-1.08-3-2.68-3.13c-0.08-0.01-0.15-0.01-0.23-0.01c-0.19,0-0.37,0.02-0.55,0.05
		c0,0,0-0.01,0-0.01c0.04-0.55-0.37-1.02-0.91-1.07c-0.55-0.04-1.02,0.37-1.07,0.91c-0.03,0.4,0.18,0.75,0.5,0.94
		c-0.49,0.48-0.82,1.13-0.88,1.86c-0.01,0.15-0.01,0.29,0,0.43c-1.71,0.01-3.43,0.01-5.14,0.02c0-4.23-0.01-8.45,0.01-12.68
		c0,0-5.61,1.78-6.85,6.69c-0.74-1.45-1.49-2.9-2.23-4.36c-0.67,0.79-1.65,2.15-2.25,4.04c-0.29,0.91-1.49,5.07,0.69,8.86
		c0.37,0.64,0.82,1.23,1.32,1.77h-0.23h-6.27c-0.2,0.89-1.31,6.21,2.07,11.07c2.27,3.26,5.52,4.8,7.47,5.34
		c1.76,0.48,3.64,0.5,3.64,0.5c0.04,0,0.08,0,0.12,0c0.99,0,1.84-0.1,2.49-0.22c0-1.82-0.01-3.65,0-5.49
		c0.94-1.94,4.66-9.67,5.23-10.83c0.32-0.56,0.5-1.07,0.6-1.36c0.06-0.18,0.22-0.69,0.32-1.38c0.46,0.4,1.04,0.67,1.69,0.72
		c0.08,0.01,0.15,0.01,0.23,0.01C37.15,23.42,38.42,22.26,38.54,20.73 M19.51,26.16c1.1,0.83,2.38,1.45,3.77,1.84
		c0.52,0.19,1.19,0.3,1.83,0.36c0.46,0.05,0.92,0.08,1.39,0.09c-0.01,1.35-0.01,2.7-0.02,4.02c-0.01,2.76-0.01,5.56,0,8.34
		c-0.46,0.05-0.93,0.07-1.39,0.07c-0.04,0-0.07,0-0.11,0c-0.02,0-1.76-0.02-3.36-0.46c-1-0.27-4.44-1.44-6.86-4.91
		c-2.49-3.57-2.35-7.43-2.06-9.35h5.35H19.51z M25.97,27.33c-3.47-0.18-6.52-1.9-8.06-4.58c-1.87-3.25-0.93-6.93-0.59-7.98
		c0.25-0.8,0.6-1.56,1.04-2.28L25.97,27.33z M26.5,21.57c0,1.43,0,2.86,0,4.29l-4.89-9.5c0.1-2.14,1.14-3.99,3.09-5.5
		c0.63-0.49,1.26-0.86,1.8-1.14C26.49,13.7,26.5,17.69,26.5,21.57 M27.6,28.43c0.56-0.03,0.95-0.1,1.19-0.15
		c0.39-0.08,1.02-0.23,1.7-0.58l-1.74,3.61l-1.17,2.42c0-0.42,0-0.85,0-1.27C27.59,31.12,27.59,29.77,27.6,28.43 M31.39,21.82
		c-1.26,0.53-2.52,1.07-3.78,1.6c0-0.53,0-1.06,0-1.59C28.53,21.83,30.42,21.83,31.39,21.82L31.39,21.82z M32.64,22.48
		c-0.08,0.61-0.21,1.06-0.28,1.24c-0.16,0.48-0.6,1.74-1.8,2.64c-0.75,0.57-1.54,0.74-2.01,0.84c-0.2,0.04-0.51,0.1-0.95,0.13
		c0-0.91,0-1.81,0-2.72l1.88-0.8L32.64,22.48z M37.45,20.65c-0.07,0.94-0.87,1.67-1.8,1.67c-0.05,0-0.1,0-0.14-0.01
		c-0.48-0.04-0.92-0.26-1.24-0.63c-0.22-0.26-0.36-0.57-0.41-0.91h0l3.22-1.39C37.33,19.74,37.48,20.18,37.45,20.65"/>
	<path class="st2" d="M38.1,26.25c-0.98,0.86-1.46,1.95-1.29,3.28c-0.88-1.01-2.01-1.39-3.3-1.23c0.98-0.86,1.46-1.95,1.29-3.28
		C35.68,26.03,36.81,26.4,38.1,26.25"/>
</g>
</svg>
